<svg width="328" height="64" viewBox="0 0 328 64" fill="none" xmlns="http://www.w3.org/2000/svg">
<path d="M9.04066 13.5788V43.6975C8.99508 44.3926 9.09674 45.0903 9.33613 45.7251C9.4471 45.9215 9.59984 46.0782 9.77835 46.1789C9.95685 46.2797 10.1546 46.3207 10.3507 46.2977C10.5285 46.3128 10.707 46.2835 10.875 46.2116C11.0429 46.1396 11.1967 46.0266 11.3267 45.8796C11.443 45.7221 11.5323 45.5385 11.5896 45.3393C11.647 45.1401 11.6712 44.9292 11.6608 44.7187V13.5788C11.6608 12.5882 11.5581 11.9176 11.3526 11.567C11.2099 11.3729 11.0301 11.2236 10.8287 11.1319C10.6274 11.0403 10.4106 11.0091 10.197 11.041C10.0368 11.0283 9.87616 11.0592 9.72718 11.1316C9.5782 11.204 9.44467 11.3159 9.33654 11.459C9.12513 11.7904 9.0202 12.2027 9.04107 12.6199L9.04066 13.5788ZM9.88309e-08 13.2692C9.88309e-08 8.48164 0.582164 5.51003 1.74649 4.35441C2.91082 3.19878 5.76178 2.62097 10.2994 2.62097C14.9394 2.62097 17.8331 3.24006 18.9805 4.47823C20.1278 5.7164 20.7013 8.64673 20.7011 13.2692V44.0065C20.7011 48.7324 20.1189 51.7091 18.9546 52.9367C17.7902 54.1643 14.9223 54.7783 10.3507 54.7786C5.72767 54.7786 2.84671 54.1493 1.70786 52.8907C0.569014 51.632 -0.000273861 48.6706 9.88309e-08 44.0065V13.2692ZM33.3888 11.2263V28.8702C33.4915 28.8702 33.6372 28.8806 33.8256 28.9014C34.0141 28.9222 34.1511 28.9326 34.2366 28.9326C34.9215 28.9326 35.388 28.7881 35.6362 28.4992C35.9293 28.0414 36.0628 27.4641 36.0085 26.8896V14.0126C36.0085 12.7332 35.8887 11.949 35.649 11.6601C35.4093 11.3712 34.9213 11.2267 34.1852 11.2267L33.3888 11.2263ZM24.3481 54.4072V2.93051H34.6475C39.1336 2.93051 41.9931 3.54448 43.2259 4.77241C44.4587 6.00035 45.0751 8.9358 45.0751 13.5788V26.4557C45.0751 31.1403 44.4544 34.0964 43.2131 35.324C41.9718 36.5516 39.1337 37.1656 34.6989 37.1659H33.3888V54.4072H24.3481ZM48.6963 54.4072V2.93051H63.0537V11.2263H57.6856V21.9364H63.0537V30.3253H57.6856V46.05H63.0537V54.4072H48.6963ZM66.7262 54.4072V2.93051H75.125L79.6199 29.3035V2.93051H87.4536V54.4072H79.0294L74.509 29.1797V54.4072H66.7262Z" fill="#342166"/>
<path d="M152.192 2.84369V54.4066H161.138V30.2843H166.48V21.8814H161.138V11.1533H166.48V2.84369H152.192Z" fill="#342166"/>
<path d="M171.361 4.26997C170.202 5.42753 169.623 8.40412 169.623 13.1997V43.9885C169.623 48.6604 170.19 51.6268 171.323 52.8875C172.456 54.1483 175.323 54.7786 179.923 54.7786C184.473 54.7783 187.327 54.1633 188.486 52.9337C189.645 51.704 190.224 48.7223 190.224 43.9885V13.1997C190.224 8.56948 189.653 5.63424 188.511 4.394C187.37 3.15375 184.49 2.53363 179.872 2.53363C175.357 2.53363 172.52 3.11241 171.361 4.26997Z" fill="#342166"/>
<path d="M193.853 2.84369V54.4066H202.85V33.9738H203.387C204.188 33.9738 204.733 34.1598 205.022 34.5319C205.312 34.904 205.457 35.6275 205.457 36.7023V54.4066H214.479V37.6325C214.479 35.0489 214.164 33.142 213.533 31.912C212.903 30.682 211.821 29.7983 210.287 29.2609C211.872 28.5786 212.966 27.6071 213.571 26.3463C214.176 25.0856 214.479 22.5844 214.479 18.8428V13.5098C214.479 8.85904 213.866 5.91867 212.639 4.68867C211.412 3.45868 208.566 2.84369 204.102 2.84369H193.853Z" fill="#342166"/>
<path d="M221.482 11.3394V54.4066H230.427V11.3394H235.028V2.84369H216.882V11.3394H221.482Z" fill="#342166"/>
<path d="M237.712 2.84369V54.4066H246.709V33.9738H247.246C248.047 33.9738 248.592 34.1598 248.881 34.5319C249.171 34.904 249.316 35.6275 249.316 36.7023V54.4066H258.338V37.6325C258.338 35.0489 258.023 33.142 257.392 31.912C256.762 30.682 255.68 29.7983 254.146 29.2609C255.731 28.5786 256.826 27.6071 257.431 26.3463C258.036 25.0856 258.338 22.5844 258.338 18.8428V13.5098C258.338 8.85904 257.725 5.91867 256.498 4.68867C255.271 3.45868 252.425 2.84369 247.961 2.84369H237.712Z" fill="#342166"/>
<path d="M261.942 2.84369V54.4066H276.229V46.0354H270.887V30.2843H276.229V21.8814H270.887V11.1533H276.229V2.84369H261.942Z" fill="#342166"/>
<path d="M288.574 33.6945H279.552L279.551 44.1125C279.551 48.6601 280.127 51.5747 281.277 52.8563C282.427 54.1378 285.328 54.7786 289.979 54.7786C293.166 54.7786 295.326 54.603 296.459 54.2518C297.457 54.0041 298.349 53.3335 298.977 52.3602C299.397 51.7098 299.69 50.9515 299.833 50.1431C300.025 48.8494 300.106 47.535 300.076 46.221V34.4709C300.076 32.1763 299.756 30.3624 299.117 29.0292C298.328 27.5315 297.208 26.3334 295.884 25.5719L290.338 21.9439C289.778 21.6323 289.294 21.1518 288.932 20.5484C288.656 19.8652 288.532 19.106 288.574 18.3467V13.4478C288.528 12.7666 288.63 12.0827 288.868 11.4634C288.972 11.2754 289.116 11.1245 289.285 11.0264C289.453 10.9283 289.64 10.8865 289.827 10.9053C290.03 10.877 290.236 10.9087 290.428 10.9978C290.619 11.0868 290.79 11.2305 290.925 11.4167C291.13 11.7581 291.232 12.4351 291.232 13.4478V20.8277H300.076V10.0063C300.076 7.21596 299.437 5.27291 298.159 4.1772C296.881 3.08149 294.103 2.53363 289.827 2.53363C285.277 2.53363 282.427 3.14862 281.277 4.37861C280.127 5.6086 279.552 8.52831 279.552 13.1377V19.1534C279.552 21.5304 279.863 23.4372 280.485 24.8739C281.174 26.3917 282.219 27.6272 283.488 28.424L289.52 32.4855C290.076 32.7956 290.559 33.27 290.925 33.8652C291.205 34.5632 291.329 35.3386 291.283 36.113V44.7639C291.288 44.9746 291.256 45.1841 291.19 45.379C291.124 45.5739 291.025 45.7499 290.9 45.8955C290.771 46.0451 290.618 46.1619 290.451 46.2391C290.285 46.3163 290.107 46.3523 289.928 46.345C289.726 46.3686 289.523 46.3264 289.339 46.2229C289.155 46.1194 288.997 45.9583 288.881 45.7561C288.639 45.1491 288.533 44.4751 288.574 43.8025V33.6945Z" fill="#342166"/>
<path d="M312.446 33.6945H303.424L303.423 44.1125C303.423 48.6601 303.999 51.5747 305.149 52.8563C306.299 54.1378 309.2 54.7786 313.851 54.7786C317.038 54.7786 319.198 54.603 320.331 54.2518C321.328 54.0041 322.221 53.3335 322.848 52.3602C323.269 51.7099 323.562 50.9516 323.705 50.1431C323.897 48.8494 323.978 47.535 323.948 46.221V34.4709C323.948 32.1763 323.628 30.3624 322.989 29.0292C322.2 27.5315 321.08 26.3334 319.756 25.5719L314.21 21.9439C313.65 21.6323 313.166 21.1518 312.804 20.5484C312.528 19.8652 312.404 19.106 312.446 18.3467V13.4478C312.4 12.7666 312.502 12.0827 312.74 11.4634C312.844 11.2754 312.988 11.1245 313.157 11.0264C313.325 10.9283 313.512 10.8865 313.698 10.9053C313.902 10.877 314.108 10.9087 314.3 10.9978C314.491 11.0868 314.662 11.2305 314.797 11.4167C315.002 11.7581 315.104 12.4351 315.104 13.4478V20.8277H323.947V10.0063C323.947 7.21596 323.308 5.27291 322.03 4.1772C320.752 3.08149 317.975 2.53363 313.698 2.53363C309.149 2.53363 306.299 3.14862 305.149 4.37861C303.999 5.6086 303.423 8.52831 303.423 13.1377V19.1529C303.423 21.5299 303.735 23.4369 304.357 24.8739C305.047 26.3917 306.092 27.6272 307.361 28.424L313.393 32.4855C313.949 32.7956 314.432 33.27 314.798 33.8652C315.078 34.5632 315.202 35.3386 315.156 36.113V44.7644C315.161 44.9751 315.129 45.1846 315.063 45.3795C314.997 45.5744 314.898 45.7504 314.772 45.896C314.643 46.0456 314.491 46.1624 314.324 46.2396C314.157 46.3168 313.98 46.3528 313.801 46.3455C313.599 46.3692 313.395 46.3271 313.211 46.2235C313.027 46.1199 312.869 45.9585 312.753 45.7561C312.511 45.1491 312.405 44.4751 312.446 43.8025V33.6945Z" fill="#342166"/>
<path d="M12.3606 18.8208V48.9395C12.315 49.6346 12.4167 50.3323 12.6561 50.9671C12.767 51.1635 12.9198 51.3202 13.0983 51.4209C13.2768 51.5217 13.4745 51.5627 13.6707 51.5397C13.8485 51.5548 14.027 51.5255 14.1949 51.4536C14.3629 51.3816 14.5167 51.2686 14.6467 51.1216C14.7629 50.9641 14.8523 50.7805 14.9096 50.5813C14.9669 50.3821 14.9911 50.1712 14.9808 49.9607V18.8208C14.9808 17.8302 14.878 17.1596 14.6726 16.809C14.5298 16.6149 14.35 16.4656 14.1487 16.374C13.9474 16.2823 13.7306 16.2511 13.517 16.283C13.3567 16.2703 13.1961 16.3012 13.0471 16.3736C12.8981 16.446 12.7646 16.5579 12.6565 16.701C12.4451 17.0324 12.3401 17.4447 12.361 17.8619L12.3606 18.8208ZM3.31995 18.5112C3.31995 13.7236 3.90211 10.752 5.06644 9.59641C6.23077 8.44079 9.08172 7.86298 13.6193 7.86298C18.2594 7.86298 21.1531 8.48206 22.3004 9.72023C23.4477 10.9584 24.0213 13.8887 24.021 18.5112V49.2485C24.021 53.9744 23.4388 56.9511 22.2745 58.1787C21.1102 59.4063 18.2422 60.0203 13.6707 60.0206C9.04762 60.0206 6.16666 59.3913 5.02781 58.1327C3.88896 56.874 3.31967 53.9127 3.31995 49.2485V18.5112ZM36.7088 16.4683V34.1122C36.8115 34.1122 36.9571 34.1226 37.1456 34.1434C37.3341 34.1642 37.471 34.1746 37.5565 34.1746C38.2414 34.1746 38.708 34.0301 38.9562 33.7412C39.2492 33.2834 39.3828 32.7061 39.3285 32.1316V19.2546C39.3285 17.9752 39.2086 17.191 38.9689 16.9021C38.7292 16.6132 38.2413 16.4688 37.5052 16.4688L36.7088 16.4683ZM27.6681 59.6492V8.17252H37.9675C42.4535 8.17252 45.313 8.78648 46.5458 10.0144C47.7786 11.2424 48.395 14.1778 48.395 18.8208V31.6977C48.395 36.3823 47.7744 39.3384 46.5331 40.566C45.2918 41.7936 42.4537 42.4076 38.0188 42.4079H36.7088V59.6492H27.6681ZM52.0162 59.6492V8.17252H66.3736V16.4683H61.0055V27.1784H66.3736V35.5673H61.0055V51.292H66.3736V59.6492H52.0162ZM70.0462 59.6492V8.17252H78.445L82.9398 34.5455V8.17252H90.7736V59.6492H82.3493L77.829 34.4217V59.6492H70.0462Z" fill="#342166"/>
<path d="M155.512 8.08563V59.6485H164.458V35.5263H169.8V27.1234H164.458V16.3953H169.8V8.08563H155.512Z" fill="#342166"/>
<path d="M174.681 9.51191C173.522 10.6695 172.943 13.6461 172.943 18.4417V49.2305C172.943 53.9024 173.51 56.8687 174.643 58.1295C175.776 59.3902 178.642 60.0206 183.243 60.0206C187.793 60.0203 190.647 59.4053 191.806 58.1756C192.965 56.9459 193.544 53.9642 193.544 49.2305V18.4417C193.544 13.8114 192.973 10.8762 191.831 9.63594C190.69 8.3957 187.81 7.77557 183.192 7.77557C178.677 7.77557 175.84 8.35435 174.681 9.51191Z" fill="#342166"/>
<path d="M197.173 8.08563V59.6485H206.17V39.2157H206.707C207.507 39.2157 208.053 39.4018 208.342 39.7739C208.632 40.1459 208.777 40.8694 208.777 41.9443V59.6485H217.799V42.8745C217.799 40.2908 217.484 38.384 216.853 37.154C216.223 35.924 215.141 35.0403 213.607 34.5028C215.191 33.8205 216.286 32.849 216.891 31.5882C217.496 30.3275 217.799 27.8263 217.799 24.0848V18.7517C217.799 14.101 217.186 11.1606 215.959 9.93062C214.732 8.70063 211.886 8.08563 207.422 8.08563H197.173Z" fill="#342166"/>
<path d="M224.802 16.5813V59.6485H233.747V16.5813H238.348V8.08563H220.202V16.5813H224.802Z" fill="#342166"/>
<path d="M241.032 8.08563V59.6485H250.029V39.2157H250.565C251.366 39.2157 251.912 39.4018 252.201 39.7739C252.491 40.1459 252.636 40.8694 252.636 41.9443V59.6485H261.658V42.8745C261.658 40.2908 261.343 38.384 260.712 37.154C260.082 35.924 258.999 35.0403 257.466 34.5028C259.051 33.8205 260.146 32.849 260.751 31.5882C261.356 30.3275 261.658 27.8263 261.658 24.0848V18.7517C261.658 14.101 261.045 11.1606 259.818 9.93062C258.591 8.70063 255.745 8.08563 251.281 8.08563H241.032Z" fill="#342166"/>
<path d="M265.262 8.08563V59.6485H279.549V51.2774H274.207V35.5263H279.549V27.1234H274.207V16.3953H279.549V8.08563H265.262Z" fill="#342166"/>
<path d="M291.894 38.9364H282.872L282.871 49.3545C282.871 53.9021 283.447 56.8166 284.597 58.0982C285.747 59.3798 288.648 60.0206 293.299 60.0206C296.486 60.0206 298.646 59.845 299.779 59.4937C300.777 59.246 301.669 58.5754 302.297 57.6021C302.717 56.9518 303.01 56.1935 303.153 55.385C303.345 54.0913 303.426 52.7769 303.396 51.4629V39.7128C303.396 37.4182 303.076 35.6043 302.437 34.2711C301.648 32.7734 300.528 31.5753 299.204 30.8138L293.658 27.1859C293.098 26.8742 292.614 26.3937 292.252 25.7904C291.976 25.1071 291.852 24.3479 291.894 23.5887V18.6897C291.848 18.0085 291.95 17.3247 292.188 16.7053C292.292 16.5173 292.436 16.3665 292.605 16.2684C292.773 16.1703 292.96 16.1285 293.146 16.1472C293.35 16.1189 293.556 16.1507 293.748 16.2397C293.939 16.3288 294.11 16.4725 294.245 16.6587C294.45 17 294.552 17.677 294.552 18.6897V26.0697H303.396V15.2483C303.396 12.4579 302.757 10.5149 301.479 9.41914C300.201 8.32343 297.423 7.77557 293.146 7.77557C288.597 7.77557 285.747 8.39057 284.597 9.62056C283.447 10.8505 282.872 13.7702 282.872 18.3797V24.3953C282.872 26.7723 283.183 28.6791 283.805 30.1158C284.494 31.6336 285.539 32.8691 286.808 33.6659L292.84 37.7275C293.396 38.0376 293.879 38.5119 294.245 39.1071C294.525 39.8052 294.649 40.5805 294.603 41.3549V50.0059C294.608 50.2165 294.576 50.4261 294.51 50.621C294.444 50.8159 294.345 50.9918 294.22 51.1375C294.09 51.2871 293.938 51.4039 293.771 51.4811C293.605 51.5582 293.427 51.5942 293.248 51.5869C293.046 51.6105 292.843 51.5684 292.659 51.4649C292.475 51.3614 292.317 51.2002 292.201 50.9981C291.958 50.3911 291.853 49.7171 291.894 49.0444V38.9364Z" fill="#342166"/>
<path d="M315.766 38.9364H306.744L306.743 49.3545C306.743 53.9021 307.318 56.8166 308.469 58.0982C309.619 59.3798 312.52 60.0206 317.171 60.0206C320.358 60.0206 322.518 59.845 323.651 59.4937C324.648 59.246 325.541 58.5754 326.168 57.6021C326.589 56.9518 326.882 56.1935 327.025 55.385C327.217 54.0913 327.298 52.7769 327.268 51.4629V39.7128C327.268 37.4182 326.948 35.6043 326.309 34.2711C325.52 32.7734 324.4 31.5753 323.076 30.8138L317.53 27.1859C316.97 26.8742 316.486 26.3937 316.124 25.7904C315.848 25.1071 315.724 24.3479 315.766 23.5887V18.6897C315.72 18.0085 315.822 17.3247 316.06 16.7053C316.164 16.5173 316.308 16.3665 316.477 16.2684C316.645 16.1703 316.832 16.1285 317.018 16.1472C317.222 16.1189 317.428 16.1507 317.619 16.2397C317.811 16.3288 317.982 16.4725 318.117 16.6587C318.322 17 318.424 17.677 318.424 18.6897V26.0697H327.267V15.2483C327.267 12.4579 326.628 10.5149 325.35 9.41914C324.072 8.32343 321.295 7.77557 317.018 7.77557C312.469 7.77557 309.619 8.39057 308.469 9.62056C307.318 10.8505 306.743 13.7702 306.743 18.3797V24.3948C306.743 26.7718 307.055 28.6788 307.677 30.1158C308.367 31.6336 309.412 32.8691 310.681 33.6659L316.713 37.7275C317.269 38.0376 317.752 38.5119 318.118 39.1071C318.398 39.8052 318.522 40.5805 318.476 41.3549V50.0064C318.481 50.217 318.449 50.4266 318.383 50.6215C318.317 50.8164 318.218 50.9923 318.092 51.138C317.963 51.2876 317.811 51.4044 317.644 51.4815C317.477 51.5587 317.299 51.5947 317.121 51.5874C316.919 51.6111 316.715 51.569 316.531 51.4654C316.347 51.3618 316.189 51.2005 316.073 50.9981C315.83 50.3911 315.725 49.7171 315.766 49.0444V38.9364Z" fill="#342166"/>
<path d="M10.5259 15.4134V45.5322C10.4803 46.2273 10.582 46.925 10.8214 47.5598C10.9323 47.7561 11.0851 47.9128 11.2636 48.0136C11.4421 48.1143 11.6398 48.1553 11.836 48.1323C12.0138 48.1475 12.1922 48.1181 12.3602 48.0462C12.5281 47.9743 12.682 47.8613 12.8119 47.7143C12.9282 47.5567 13.0175 47.3731 13.0749 47.1739C13.1322 46.9747 13.1564 46.7639 13.146 46.5534V15.4134C13.146 14.4229 13.0433 13.7523 12.8378 13.4016C12.6951 13.2076 12.5153 13.0582 12.314 12.9666C12.1126 12.875 11.8958 12.8438 11.6823 12.8757C11.522 12.8629 11.3614 12.8939 11.2124 12.9662C11.0634 13.0386 10.9299 13.1505 10.8218 13.2937C10.6104 13.6251 10.5054 14.0373 10.5263 14.4546L10.5259 15.4134ZM1.48523 15.1039C1.48523 10.3163 2.06739 7.34469 3.23172 6.18906C4.39605 5.03344 7.24701 4.45563 11.7846 4.45563C16.4246 4.45563 19.3183 5.07471 20.4657 6.31288C21.613 7.55105 22.1866 10.4814 22.1863 15.1039V45.8412C22.1863 50.567 21.6041 53.5438 20.4398 54.7714C19.2755 55.999 16.4075 56.6129 11.836 56.6133C7.2129 56.6133 4.33194 55.984 3.19309 54.7253C2.05424 53.4667 1.48496 50.5053 1.48523 45.8412V15.1039ZM34.874 13.0609V30.7048C34.9768 30.7048 35.1224 30.7152 35.3109 30.736C35.4994 30.7568 35.6363 30.7672 35.7218 30.7672C36.4067 30.7672 36.8733 30.6228 37.1215 30.3339C37.4145 29.8761 37.5481 29.2987 37.4938 28.7242V15.8473C37.4938 14.5678 37.3739 13.7837 37.1342 13.4948C36.8945 13.2059 36.4066 13.0614 35.6704 13.0614L34.874 13.0609ZM25.8334 56.2418V4.76517H36.1327C40.6188 4.76517 43.4783 5.37913 44.7111 6.60707C45.9439 7.835 46.5603 10.7705 46.5603 15.4134V28.2904C46.5603 32.975 45.9397 35.9311 44.6984 37.1587C43.457 38.3863 40.619 39.0002 36.1841 39.0006H34.874V56.2418H25.8334ZM50.1815 56.2418V4.76517H64.5389V13.0609H59.1708V23.7711H64.5389V32.1599H59.1708V47.8847H64.5389V56.2418H50.1815ZM68.2115 56.2418V4.76517H76.6103L81.1051 31.1382V4.76517H88.9388V56.2418H80.5146L75.9943 31.0144V56.2418H68.2115Z" fill="white"/>
<path fill-rule="evenodd" clip-rule="evenodd" d="M170.846 15.0344C170.846 10.2388 171.425 7.26219 172.584 6.10463C173.743 4.94707 176.58 4.36829 181.095 4.36829C185.713 4.36829 188.593 4.98841 189.734 6.22865C190.876 7.4689 191.447 10.4041 191.447 15.0344V45.8232C191.447 50.5569 190.868 53.5387 189.709 54.7683C188.55 55.998 185.696 56.613 181.146 56.6133C176.546 56.6133 173.679 55.9829 172.546 54.7222C171.413 53.4614 170.846 50.4951 170.846 45.8232V15.0344ZM153.415 56.2412V4.67835H167.703V12.988H162.361V23.7161H167.703V32.119H162.361V56.2412H153.415ZM195.076 4.67835V56.2412H204.073V35.8085H204.61C205.411 35.8085 205.956 35.9945 206.245 36.3666C206.535 36.7386 206.68 37.4621 206.68 38.537V56.2412H215.702V39.4672C215.702 36.8835 215.387 34.9767 214.756 33.7467C214.126 32.5167 213.044 31.633 211.51 31.0955C213.095 30.4132 214.189 29.4417 214.794 28.181C215.399 26.9202 215.702 24.4191 215.702 20.6775V15.3444C215.702 10.6937 215.089 7.75332 213.862 6.52333C212.635 5.29334 209.79 4.67835 205.325 4.67835H195.076ZM222.705 56.2412V13.174H218.105V4.67835H236.251V13.174H231.65V56.2412H222.705ZM238.935 4.67835V56.2412H247.932V35.8085H248.469C249.27 35.8085 249.815 35.9945 250.104 36.3666C250.394 36.7386 250.539 37.4621 250.539 38.537V56.2412H259.561V39.4672C259.561 36.8835 259.246 34.9767 258.615 33.7467C257.985 32.5167 256.903 31.633 255.369 31.0955C256.954 30.4132 258.049 29.4417 258.654 28.181C259.259 26.9202 259.561 24.4191 259.561 20.6775V15.3444C259.561 10.6937 258.948 7.75332 257.721 6.52333C256.494 5.29334 253.648 4.67835 249.184 4.67835H238.935ZM263.165 56.2412V4.67835H277.452V12.988H272.11V23.7161H277.452V32.119H272.11V47.8701H277.452V56.2412H263.165ZM289.797 35.5292H280.775L280.775 45.9472C280.775 50.4948 281.35 53.4093 282.5 54.6909C283.65 55.9725 286.551 56.6133 291.203 56.6133C294.389 56.6133 296.549 56.4377 297.682 56.0864C298.68 55.8387 299.572 55.1681 300.2 54.1948C300.62 53.5445 300.913 52.7862 301.056 51.9778C301.248 50.684 301.329 49.3697 301.299 48.0556V36.3055C301.299 34.0109 300.979 32.197 300.34 30.8639C299.551 29.3661 298.431 28.168 297.107 27.4066L291.561 23.7786C291.001 23.4669 290.517 22.9864 290.155 22.3831C289.879 21.6998 289.755 20.9406 289.797 20.1814V15.2824C289.752 14.6012 289.853 13.9174 290.091 13.298C290.195 13.11 290.339 12.9592 290.508 12.8611C290.676 12.763 290.863 12.7212 291.05 12.7399C291.253 12.7117 291.459 12.7434 291.651 12.8324C291.842 12.9215 292.013 13.0652 292.148 13.2514C292.353 13.5927 292.455 14.2697 292.455 15.2824V22.6624H301.299V11.841C301.299 9.05062 300.66 7.10757 299.382 6.01186C298.104 4.91614 295.326 4.36829 291.05 4.36829C286.5 4.36829 283.65 4.98328 282.5 6.21327C281.35 7.44326 280.775 10.363 280.775 14.9724V20.988C280.775 23.365 281.086 25.2718 281.708 26.7085C282.397 28.2263 283.442 29.4618 284.711 30.2586L290.743 34.3202C291.299 34.6303 291.782 35.1046 292.148 35.6998C292.429 36.3979 292.552 37.1732 292.506 37.9476V46.5986C292.511 46.8092 292.479 47.0188 292.413 47.2137C292.347 47.4086 292.248 47.5845 292.123 47.7302C291.994 47.8798 291.841 47.9966 291.674 48.0738C291.508 48.151 291.33 48.1869 291.151 48.1796C290.949 48.2032 290.746 48.1611 290.562 48.0576C290.378 47.9541 290.22 47.793 290.104 47.5908C289.862 46.9838 289.756 46.3098 289.797 45.6371V35.5292ZM304.647 35.5292H313.669V45.6371C313.628 46.3098 313.734 46.9838 313.976 47.5908C314.092 47.7932 314.25 47.9545 314.434 48.0581C314.618 48.1617 314.822 48.2038 315.024 48.1801C315.203 48.1874 315.38 48.1514 315.547 48.0743C315.714 47.9971 315.866 47.8803 315.995 47.7307C316.121 47.585 316.22 47.4091 316.286 47.2142C316.352 47.0193 316.384 46.8097 316.379 46.5991V37.9476C316.425 37.1732 316.301 36.3979 316.021 35.6998C315.655 35.1046 315.172 34.6303 314.616 34.3202L308.584 30.2586C307.315 29.4618 306.27 28.2263 305.58 26.7085C304.958 25.2715 304.646 23.3645 304.646 20.9876V14.9724C304.646 10.363 305.222 7.44326 306.372 6.21327C307.522 4.98328 310.372 4.36829 314.921 4.36829C319.198 4.36829 321.975 4.91614 323.253 6.01186C324.531 7.10757 325.17 9.05062 325.17 11.841V22.6624H316.327V15.2824C316.327 14.2697 316.225 13.5927 316.02 13.2514C315.885 13.0652 315.714 12.9215 315.523 12.8324C315.331 12.7434 315.125 12.7117 314.922 12.7399C314.735 12.7212 314.548 12.763 314.38 12.8611C314.211 12.9592 314.067 13.11 313.963 13.298C313.725 13.9174 313.623 14.6012 313.669 15.2824V20.1814C313.627 20.9406 313.751 21.6998 314.027 22.3831C314.389 22.9864 314.873 23.4669 315.433 23.7786L320.979 27.4066C322.303 28.168 323.423 29.3661 324.212 30.8639C324.851 32.197 325.171 34.0109 325.171 36.3055V48.0556C325.201 49.3697 325.12 50.684 324.928 51.9778C324.785 52.7862 324.492 53.5445 324.071 54.1948C323.444 55.1681 322.551 55.8387 321.554 56.0864C320.421 56.4377 318.261 56.6133 315.074 56.6133C310.423 56.6133 307.522 55.9725 306.372 54.6909C305.222 53.4093 304.646 50.4948 304.646 45.9472L304.647 35.5292ZM181.066 15.3444V45.5136C181.021 46.2099 181.122 46.9088 181.36 47.5446C181.47 47.7413 181.622 47.8983 181.8 47.9992C181.978 48.1001 182.174 48.1412 182.37 48.1181C182.547 48.1333 182.724 48.1039 182.891 48.0319C183.059 47.9598 183.212 47.8466 183.341 47.6994C183.457 47.5416 183.546 47.3577 183.603 47.1581C183.66 46.9586 183.684 46.7474 183.673 46.5366V15.3444C183.673 14.3522 183.571 13.6805 183.367 13.3293C183.225 13.1349 183.046 12.9853 182.845 12.8935C182.645 12.8017 182.429 12.7705 182.217 12.8024C182.057 12.7896 181.897 12.8207 181.749 12.8931C181.601 12.9656 181.468 13.0777 181.36 13.2211C181.15 13.5531 181.046 13.966 181.066 14.384L181.066 15.3444ZM206.708 15.8067V22.8728L206.708 24.2676C206.708 25.0528 206.584 25.5848 206.336 25.8638C205.925 26.1987 205.429 26.347 204.936 26.2823C204.85 26.2823 204.713 26.2719 204.525 26.2511C204.336 26.2303 204.19 26.2199 204.087 26.2199V13.0175H204.884C205.62 13.0175 206.108 13.1621 206.348 13.4514C206.588 13.7406 206.708 14.5257 206.708 15.8067ZM250.566 22.8728V15.8067C250.566 14.5257 250.446 13.7406 250.206 13.4514C249.966 13.1621 249.478 13.0175 248.742 13.0175H247.945V26.2199C248.048 26.2199 248.194 26.2303 248.382 26.2511C248.571 26.2719 248.708 26.2823 248.794 26.2823C249.287 26.347 249.783 26.1987 250.194 25.8638C250.442 25.5848 250.566 25.0528 250.566 24.2676L250.566 22.8728Z" fill="white"/>
<path d="M113.795 6.55247C108.902 6.02827 105.64 7.3242 104.621 8.03769L93.744 55.6086L94.1371 55.9581C94.0061 56.5696 93.6654 58.0985 93.3509 59.3217C93.0363 60.5448 93.4819 61.2583 93.744 61.4621C94.3992 61.8844 95.9282 62.8862 96.8018 63.5153C97.4658 64.1443 98.5055 63.8356 98.9423 63.6026C105.553 60.8069 119.063 55.0407 120.216 54.3418C121.658 53.4681 123.405 53.075 124.759 52.9876C126.113 52.9003 127.205 53.6429 127.686 53.8176C128.166 53.9923 149.003 63.9521 149.091 63.9958C149.178 64.0394 150.008 63.7337 150.226 63.6026C150.445 63.4716 151.843 62.1611 151.93 60.7632C152.017 59.3654 144.242 18.0848 143.324 15.3328C142.407 12.9739 140.834 12.7118 140.703 12.5371C140.572 12.3623 140.354 12.1876 139.611 11.5323C139.174 8.99872 137.34 7.95033 135.505 7.68823C133.67 7.42613 131.006 7.86296 130.7 7.86296C130.56 7.75812 129.652 6.85825 129.215 6.42142C128.953 6.11564 125.895 1.35418 122.575 0C118.512 1.22313 117.027 2.44625 113.795 6.55247Z" fill="#342166"/>
<path fill-rule="evenodd" clip-rule="evenodd" d="M95.1619 58.3598L105.945 10.7157C105.945 10.7157 108.789 8.68931 115.02 9.27195C118.577 4.52185 121.325 3.47424 123.963 2.70935C125.976 3.36643 130.528 7.9328 131.327 10.7157C135.515 9.94345 138.959 10.097 140.402 12.5532C141.845 15.0094 149.081 57.9667 149.081 57.9667C148.741 58.4903 148.345 58.9744 147.898 59.4099L126.725 49.3034C126.725 49.3034 123.544 47.0572 118.966 49.6974C113.05 52.1603 96.6087 59.4099 96.6087 59.4099L95.1619 58.3598ZM99.6333 55.2102C98.653 53.3432 105.23 22.2506 106.866 16.097C107.791 12.8764 108.855 11.2937 110.417 11.2407C110.287 14.3873 110.145 15.3013 110.68 15.8345C112.107 15.8345 121.093 7.55215 122.91 5.85934C122.643 18.1245 122.647 42.8724 122.647 42.8724C122.647 42.8724 102.575 53.6988 99.6333 55.2102ZM134.16 12.6785C134.329 12.6789 134.494 12.7292 134.634 12.8232C134.774 12.9172 134.883 13.0507 134.948 13.2067C135.012 13.3627 135.029 13.5342 134.996 13.6997C134.962 13.8652 134.881 14.0171 134.762 14.1363C134.642 14.2555 134.49 14.3366 134.325 14.3694C134.159 14.4022 133.987 14.3852 133.832 14.3205C133.676 14.2559 133.543 14.1465 133.449 14.0061C133.355 13.8658 133.305 13.7008 133.305 13.5321C133.305 13.4199 133.327 13.3088 133.37 13.2052C133.413 13.1015 133.476 13.0074 133.556 12.9281C133.635 12.8489 133.73 12.786 133.833 12.7432C133.937 12.7004 134.048 12.6784 134.16 12.6785Z" fill="white"/>
<path d="M137.771 38.8037L132.774 37.3596L135.93 36.4413L137.113 30.1414L137.771 38.8037Z" fill="#342166"/>
<path d="M110.417 27.91C109.479 31.9218 106.866 39.7219 106.866 39.7219C106.153 33.145 108.059 25.0525 108.708 24.6287C109.357 24.2049 117.418 19.8091 118.703 21.7411C114.906 23.6727 113.139 24.3419 110.417 27.91Z" fill="white"/>
<circle cx="134.195" cy="13.5418" r="0.873662" fill="#342166"/>
</svg>